<mxfile host="app.diagrams.net" agent="Mozilla/5.0 (Windows NT 10.0; Win64; x64) AppleWebKit/537.36 (KHTML, like Gecko) Chrome/132.0.0.0 Safari/537.36" version="26.0.13">
  <diagram name="Page-1" id="fTw14dkfK30_vP7r-7nn">
    <mxGraphModel dx="534" dy="393" grid="1" gridSize="10" guides="1" tooltips="1" connect="1" arrows="1" fold="1" page="1" pageScale="1" pageWidth="850" pageHeight="1100" math="0" shadow="0">
      <root>
        <mxCell id="0" />
        <mxCell id="1" parent="0" />
        <mxCell id="0ZlpamjTbyV56TFkXjlM-9" value="" style="edgeStyle=orthogonalEdgeStyle;rounded=0;orthogonalLoop=1;jettySize=auto;html=1;" edge="1" parent="1" source="0ZlpamjTbyV56TFkXjlM-5" target="0ZlpamjTbyV56TFkXjlM-8">
          <mxGeometry relative="1" as="geometry" />
        </mxCell>
        <mxCell id="0ZlpamjTbyV56TFkXjlM-5" value="Get a number from user and store in a variable called input" style="whiteSpace=wrap;html=1;rounded=0;" vertex="1" parent="1">
          <mxGeometry x="270" y="140" width="120" height="60" as="geometry" />
        </mxCell>
        <mxCell id="0ZlpamjTbyV56TFkXjlM-12" value="" style="edgeStyle=orthogonalEdgeStyle;rounded=0;orthogonalLoop=1;jettySize=auto;html=1;" edge="1" parent="1" source="0ZlpamjTbyV56TFkXjlM-8" target="0ZlpamjTbyV56TFkXjlM-11">
          <mxGeometry relative="1" as="geometry" />
        </mxCell>
        <mxCell id="0ZlpamjTbyV56TFkXjlM-13" value="Yes" style="edgeLabel;html=1;align=center;verticalAlign=middle;resizable=0;points=[];" vertex="1" connectable="0" parent="0ZlpamjTbyV56TFkXjlM-12">
          <mxGeometry x="0.1356" y="-1" relative="1" as="geometry">
            <mxPoint as="offset" />
          </mxGeometry>
        </mxCell>
        <mxCell id="0ZlpamjTbyV56TFkXjlM-15" value="" style="edgeStyle=orthogonalEdgeStyle;rounded=0;orthogonalLoop=1;jettySize=auto;html=1;" edge="1" parent="1" source="0ZlpamjTbyV56TFkXjlM-8" target="0ZlpamjTbyV56TFkXjlM-14">
          <mxGeometry relative="1" as="geometry" />
        </mxCell>
        <mxCell id="0ZlpamjTbyV56TFkXjlM-16" value="No" style="edgeLabel;html=1;align=center;verticalAlign=middle;resizable=0;points=[];" vertex="1" connectable="0" parent="0ZlpamjTbyV56TFkXjlM-15">
          <mxGeometry x="-0.3304" y="-1" relative="1" as="geometry">
            <mxPoint as="offset" />
          </mxGeometry>
        </mxCell>
        <mxCell id="0ZlpamjTbyV56TFkXjlM-8" value="Is &lt;br&gt;the number small?" style="rhombus;whiteSpace=wrap;html=1;rounded=0;" vertex="1" parent="1">
          <mxGeometry x="290" y="240" width="80" height="80" as="geometry" />
        </mxCell>
        <mxCell id="0ZlpamjTbyV56TFkXjlM-20" style="edgeStyle=orthogonalEdgeStyle;rounded=0;orthogonalLoop=1;jettySize=auto;html=1;entryX=0.5;entryY=0;entryDx=0;entryDy=0;" edge="1" parent="1" source="0ZlpamjTbyV56TFkXjlM-11" target="0ZlpamjTbyV56TFkXjlM-17">
          <mxGeometry relative="1" as="geometry">
            <Array as="points">
              <mxPoint x="490" y="350" />
              <mxPoint x="330" y="350" />
            </Array>
          </mxGeometry>
        </mxCell>
        <mxCell id="0ZlpamjTbyV56TFkXjlM-11" value="Print &quot;Small&quot;" style="whiteSpace=wrap;html=1;rounded=0;" vertex="1" parent="1">
          <mxGeometry x="430" y="250" width="120" height="60" as="geometry" />
        </mxCell>
        <mxCell id="0ZlpamjTbyV56TFkXjlM-19" style="edgeStyle=orthogonalEdgeStyle;rounded=0;orthogonalLoop=1;jettySize=auto;html=1;entryX=0.5;entryY=0;entryDx=0;entryDy=0;" edge="1" parent="1" source="0ZlpamjTbyV56TFkXjlM-14" target="0ZlpamjTbyV56TFkXjlM-17">
          <mxGeometry relative="1" as="geometry">
            <Array as="points">
              <mxPoint x="170" y="350" />
              <mxPoint x="330" y="350" />
            </Array>
          </mxGeometry>
        </mxCell>
        <mxCell id="0ZlpamjTbyV56TFkXjlM-14" value="Print &quot;Big&quot;" style="whiteSpace=wrap;html=1;rounded=0;" vertex="1" parent="1">
          <mxGeometry x="110" y="250" width="120" height="60" as="geometry" />
        </mxCell>
        <mxCell id="0ZlpamjTbyV56TFkXjlM-17" value="Print &quot;Done&quot;" style="whiteSpace=wrap;html=1;rounded=0;" vertex="1" parent="1">
          <mxGeometry x="270" y="400" width="120" height="60" as="geometry" />
        </mxCell>
      </root>
    </mxGraphModel>
  </diagram>
</mxfile>
